<svg xmlns="http://www.w3.org/2000/svg" width="48" height="48"><path fill="#455A64" d="M14.539 6h2.125l1.37 5.496h.133l1.308-5.493h2.147l-2.458 8.036V20h-2.112v-5.703L14.539 6zm6.986 5.923c0-.784.254-1.411.759-1.874.504-.466 1.182-.7 2.035-.7.778 0 1.413.245 1.908.737.495.488.743 1.121.743 1.894v5.235c0 .866-.242 1.548-.728 2.044-.486.494-1.152.741-2.007.741-.823 0-1.477-.259-1.974-.767-.493-.508-.738-1.194-.738-2.055v-5.256h.002zm1.93 5.445c0 .275.066.494.205.646.132.15.322.226.571.226.255 0 .454-.077.604-.234.149-.151.226-.366.226-.638v-5.522a.69.69 0 0 0-.231-.536c-.151-.135-.352-.205-.599-.205a.79.79 0 0 0-.561.205.71.71 0 0 0-.215.536v5.522zm10.463-7.763V20h-1.875v-1.266c-.346.414-.705.728-1.081.941-.372.215-.735.325-1.086.325-.435 0-.76-.149-.981-.452-.221-.3-.329-.751-.329-1.357V9.605h1.874v7.886c0 .236.04.41.12.519.075.104.207.162.38.162.141 0 .315-.071.522-.215.213-.141.406-.324.581-.544V9.605h1.875z"/><path fill="#FFF" d="M38.799 26.439c0-2.342-1.94-4.24-4.329-4.24A242.29 242.29 0 0 0 24 22.001a244.03 244.03 0 0 0-10.47.198c-2.387 0-4.327 1.898-4.327 4.24A70.247 70.247 0 0 0 9 32.001c-.005 1.853.06 3.707.204 5.561 0 2.345 1.938 4.243 4.326 4.243 3.414.14 6.907.2 10.47.195 3.564.008 7.058-.056 10.47-.195 2.389 0 4.329-1.898 4.329-4.243.142-1.854.209-3.708.201-5.561a68.843 68.843 0 0 0-.201-5.562z"/><g fill="#F44336"><path d="M33.851 30.346c-.219 0-.368.058-.458.18-.064.091-.145.299-.145.752v.774h1.193v-.774c0-.446-.083-.655-.151-.757-.085-.119-.229-.175-.439-.175zm-6.986.04a.973.973 0 0 0-.258.193v5.876c.11.111.217.191.316.242a.76.76 0 0 0 .346.08c.231 0 .303-.091.326-.123.057-.071.119-.219.119-.54v-5.005c0-.278-.053-.493-.152-.625-.134-.178-.398-.248-.697-.098z"/><path d="M38.799 26.439c0-2.342-1.94-4.24-4.329-4.24A242.29 242.29 0 0 0 24 22.001a244.03 244.03 0 0 0-10.47.198c-2.387 0-4.327 1.898-4.327 4.24A70.247 70.247 0 0 0 9 32.001c-.005 1.853.06 3.707.204 5.561 0 2.345 1.938 4.243 4.326 4.243 3.414.14 6.907.2 10.47.195 3.564.008 7.058-.056 10.47-.195 2.389 0 4.329-1.898 4.329-4.243.142-1.854.209-3.708.201-5.561a68.843 68.843 0 0 0-.201-5.562zM15.701 38.382a.206.206 0 0 1-.206.204h-2.049a.206.206 0 0 1-.206-.204v-11.03h-1.914a.205.205 0 0 1-.205-.203v-1.904c0-.112.092-.204.205-.204h6.291c.114 0 .206.092.206.204v1.904a.204.204 0 0 1-.206.203h-1.916v11.03zm7.294 0a.206.206 0 0 1-.206.204h-1.822a.206.206 0 0 1-.206-.204v-.551a3.68 3.68 0 0 1-.738.56c-.397.227-.776.336-1.16.336-.488 0-.864-.176-1.117-.517-.238-.324-.361-.803-.361-1.421v-8.1c0-.112.092-.204.207-.204h1.821c.114 0 .206.092.206.204v7.428c0 .244.044.343.072.382.013.017.05.067.205.067.052 0 .172-.022.389-.169.176-.115.334-.259.473-.425v-7.283c0-.112.092-.204.207-.204h1.821c.114 0 .206.092.206.204v9.692h.003zM30 36.373c0 .736-.159 1.31-.473 1.708-.326.418-.797.626-1.398.626-.383 0-.733-.077-1.046-.233a2.24 2.24 0 0 1-.479-.325v.233a.205.205 0 0 1-.206.204h-1.837a.205.205 0 0 1-.207-.204v-13.14c0-.112.092-.203.207-.203h1.837c.113 0 .206.091.206.203v3.717c.15-.136.31-.25.474-.343a1.94 1.94 0 0 1 .941-.256c.641 0 1.143.238 1.484.706.328.45.495 1.101.495 1.933L30 36.373zm6.729-2.608a.206.206 0 0 1-.207.205h-3.273v1.621c0 .592.082.845.148.951.053.088.152.199.438.199.23 0 .388-.055.469-.164.037-.058.139-.28.139-.988v-.675c0-.114.093-.204.207-.204h1.872c.114 0 .205.09.205.204v.729c0 1.044-.249 1.844-.737 2.384-.49.543-1.23.82-2.198.82-.872 0-1.574-.296-2.079-.871-.5-.571-.755-1.354-.755-2.333v-4.352c0-.892.278-1.63.83-2.196.55-.568 1.274-.857 2.144-.857.89 0 1.587.271 2.072.803.48.526.724 1.284.724 2.251v2.474h.001z"/></g></svg>